<svg xmlns="http://www.w3.org/2000/svg" width="17.982" height="11.988" viewBox="0 0 17.982 11.988">
  <path id="Icon_awesome-eye" data-name="Icon awesome-eye" d="M17.874,10.038A10.013,10.013,0,0,0,8.991,4.5,10.015,10.015,0,0,0,.109,10.039a1.01,1.01,0,0,0,0,.911,10.013,10.013,0,0,0,8.882,5.538,10.015,10.015,0,0,0,8.882-5.539A1.01,1.01,0,0,0,17.874,10.038ZM8.991,14.99a4.5,4.5,0,1,1,4.5-4.5A4.5,4.5,0,0,1,8.991,14.99Zm0-7.493a2.975,2.975,0,0,0-.79.118A1.494,1.494,0,0,1,6.112,9.7,2.99,2.99,0,1,0,8.991,7.5Z" transform="translate(0 -4.5)" fill="#3c3c3c"/>
</svg>
