<svg xmlns="http://www.w3.org/2000/svg" width="60" height="40" viewBox="0 0 60 40">
  <g id="Group_2632" data-name="Group 2632" transform="translate(-1735 -1155)">
    <path id="Rectangle_3761_-_Outline" data-name="Rectangle 3761 - Outline" d="M6,1.5A4.505,4.505,0,0,0,1.5,6V34A4.505,4.505,0,0,0,6,38.5H54A4.505,4.505,0,0,0,58.5,34V6A4.505,4.505,0,0,0,54,1.5H6M6,0H54a6,6,0,0,1,6,6V34a6,6,0,0,1-6,6H6a6,6,0,0,1-6-6V6A6,6,0,0,1,6,0Z" transform="translate(1735 1155)" fill="#a2a2a2"/>
    <rect id="Rectangle_3761" data-name="Rectangle 3761" width="52" height="32" rx="4" transform="translate(1739 1159)" fill="#a2a2a2"/>
    <rect id="Rectangle_3763" data-name="Rectangle 3763" width="18" height="1.5" rx="0.75" transform="translate(1756 1171)" fill="#fff"/>
    <rect id="Rectangle_3764" data-name="Rectangle 3764" width="12" height="1.5" rx="0.75" transform="translate(1759 1177)" fill="#fff"/>
  </g>
</svg>
