<svg xmlns="http://www.w3.org/2000/svg" width="16" height="16" viewBox="0 0 16 16">
  <path id="video-call_1_" data-name="video-call (1)" d="M1,3.182A2.182,2.182,0,0,1,3.182,1h8.727a2.182,2.182,0,0,1,2.182,2.182V4.187l1.857-.928A.727.727,0,0,1,17,3.909v6.545a.727.727,0,0,1-1.053.65l-1.857-.928v1.005a2.182,2.182,0,0,1-2.182,2.182H9.3L6.179,16.486a1.756,1.756,0,0,1-3-1.242V13.364A2.182,2.182,0,0,1,1,11.182Zm10.909,8.727a.727.727,0,0,0,.727-.727v-8a.727.727,0,0,0-.727-.727H3.182a.727.727,0,0,0-.727.727v8a.727.727,0,0,0,.727.727h.727a.727.727,0,0,1,.727.727v2.608a.3.3,0,0,0,.514.213l3.335-3.335A.727.727,0,0,1,9,11.909Zm2.182-6.1V8.551l1.455.727V5.086Zm-8,1.369A1.455,1.455,0,1,1,7.545,8.636,1.455,1.455,0,0,1,6.091,7.182ZM7.545,4.273a2.909,2.909,0,1,0,2.909,2.909A2.909,2.909,0,0,0,7.545,4.273Z" transform="translate(-1 -1)" fill="#6e6e6e" fill-rule="evenodd"/>
</svg>
